<?xml version="1.0" encoding="UTF-8"?>
<svg width="512" height="512" viewBox="0 0 512 512" xmlns="http://www.w3.org/2000/svg">
    <!-- Gear -->
    <path fill="#4F46E5" d="M487.4 315.7l-42.2-24.3c2.7-14.5 2.7-29.3 0-43.8l42.2-24.3c12.5-7.2 16.8-23.2 9.7-35.7l-32-55.4c-7.2-12.5-23.2-16.8-35.7-9.7l-42.2 24.3c-11.5-9.8-24.2-17.6-38.2-23.1V32c0-14.4-11.6-26-26-26h-64c-14.4 0-26 11.6-26 26v48.8c-13.9 5.5-26.7 13.3-38.2 23.1L93 79.5c-12.5-7.2-28.5-2.9-35.7 9.7l-32 55.4c-7.2 12.5-2.9 28.5 9.7 35.7l42.2 24.3c-2.7 14.5-2.7 29.3 0 43.8L35 315.7c-12.5 7.2-16.8 23.2-9.7 35.7l32 55.4c7.2 12.5 23.2 16.8 35.7 9.7l42.2-24.3c11.5 9.8 24.2 17.6 38.2 23.1V480c0 14.4 11.6 26 26 26h64c14.4 0 26-11.6 26-26v-48.8c13.9-5.5 26.7-13.3 38.2-23.1l42.2 24.3c12.5 7.2 28.5 2.9 35.7-9.7l32-55.4c7.2-12.5 2.8-28.5-9.7-35.7zM256 336c-44.1 0-80-35.9-80-80s35.9-80 80-80 80 35.9 80 80-35.9 80-80 80z"/>
    
    <!-- Hand -->
    <path fill="#4F46E5" d="M480 352h-80l-26.8-53.7c-5.5-11-18.6-15.4-29.6-10s-15.4 18.6-10 29.6l32 64c3.7 7.4 11.3 12.1 19.6 12.1h94.8c12.4 0 22.5-10.1 22.5-22.5S492.4 352 480 352zM320 352H48c-26.5 0-48 21.5-48 48 0 17.7 14.3 32 32 32h224c35.3 0 64-28.7 64-64 0-8.8-7.2-16-16-16z"/>
</svg>